<mxfile host="app.diagrams.net" modified="2022-02-12T15:49:08.565Z" agent="5.0 (Windows NT 10.0; Win64; x64) AppleWebKit/537.36 (KHTML, like Gecko) Chrome/98.0.4758.80 Safari/537.36 Edg/98.0.1108.50" etag="sGERSzkIMboxOPyMzvKQ" version="16.5.6" type="github">
  <diagram id="lzU8w3YowqZkS8ccZmY8" name="第 1 页">
    <mxGraphModel dx="1422" dy="786" grid="1" gridSize="10" guides="1" tooltips="1" connect="1" arrows="1" fold="1" page="1" pageScale="1" pageWidth="827" pageHeight="1169" math="0" shadow="0">
      <root>
        <mxCell id="0" />
        <mxCell id="1" parent="0" />
        <mxCell id="rXs9L9ZFIp_ScIqS3WeQ-1" value="用户" style="whiteSpace=wrap;html=1;align=center;" parent="1" vertex="1">
          <mxGeometry x="129" y="90" width="100" height="40" as="geometry" />
        </mxCell>
        <mxCell id="rXs9L9ZFIp_ScIqS3WeQ-2" value="GitHub账户信息" style="ellipse;whiteSpace=wrap;html=1;align=center;" parent="1" vertex="1">
          <mxGeometry x="129" y="170" width="100" height="40" as="geometry" />
        </mxCell>
        <mxCell id="rXs9L9ZFIp_ScIqS3WeQ-3" value="" style="endArrow=none;html=1;rounded=0;exitX=0.5;exitY=1;exitDx=0;exitDy=0;entryX=0.5;entryY=0;entryDx=0;entryDy=0;" parent="1" source="rXs9L9ZFIp_ScIqS3WeQ-1" target="rXs9L9ZFIp_ScIqS3WeQ-2" edge="1">
          <mxGeometry relative="1" as="geometry">
            <mxPoint x="259" y="150" as="sourcePoint" />
            <mxPoint x="419" y="150" as="targetPoint" />
          </mxGeometry>
        </mxCell>
        <mxCell id="rXs9L9ZFIp_ScIqS3WeQ-4" value="参与" style="shape=rhombus;perimeter=rhombusPerimeter;whiteSpace=wrap;html=1;align=center;" parent="1" vertex="1">
          <mxGeometry x="279" y="80" width="120" height="60" as="geometry" />
        </mxCell>
        <mxCell id="rXs9L9ZFIp_ScIqS3WeQ-5" value="竞赛活动" style="whiteSpace=wrap;html=1;align=center;" parent="1" vertex="1">
          <mxGeometry x="449" y="90" width="100" height="40" as="geometry" />
        </mxCell>
        <mxCell id="rXs9L9ZFIp_ScIqS3WeQ-6" value="" style="endArrow=none;html=1;rounded=0;exitX=1;exitY=0.5;exitDx=0;exitDy=0;entryX=0;entryY=0.5;entryDx=0;entryDy=0;" parent="1" source="rXs9L9ZFIp_ScIqS3WeQ-4" target="rXs9L9ZFIp_ScIqS3WeQ-5" edge="1">
          <mxGeometry relative="1" as="geometry">
            <mxPoint x="389" y="240" as="sourcePoint" />
            <mxPoint x="549" y="240" as="targetPoint" />
          </mxGeometry>
        </mxCell>
        <mxCell id="rXs9L9ZFIp_ScIqS3WeQ-7" value="N" style="resizable=0;html=1;align=right;verticalAlign=bottom;" parent="rXs9L9ZFIp_ScIqS3WeQ-6" connectable="0" vertex="1">
          <mxGeometry x="1" relative="1" as="geometry">
            <mxPoint x="-10" as="offset" />
          </mxGeometry>
        </mxCell>
        <mxCell id="rXs9L9ZFIp_ScIqS3WeQ-8" value="" style="endArrow=none;html=1;rounded=0;exitX=0;exitY=0.5;exitDx=0;exitDy=0;" parent="1" source="rXs9L9ZFIp_ScIqS3WeQ-4" target="rXs9L9ZFIp_ScIqS3WeQ-1" edge="1">
          <mxGeometry relative="1" as="geometry">
            <mxPoint x="299" y="200" as="sourcePoint" />
            <mxPoint x="459" y="200" as="targetPoint" />
          </mxGeometry>
        </mxCell>
        <mxCell id="rXs9L9ZFIp_ScIqS3WeQ-9" value="N" style="resizable=0;html=1;align=right;verticalAlign=bottom;" parent="rXs9L9ZFIp_ScIqS3WeQ-8" connectable="0" vertex="1">
          <mxGeometry x="1" relative="1" as="geometry">
            <mxPoint x="20" as="offset" />
          </mxGeometry>
        </mxCell>
        <mxCell id="rXs9L9ZFIp_ScIqS3WeQ-10" value="描述" style="ellipse;whiteSpace=wrap;html=1;align=center;" parent="1" vertex="1">
          <mxGeometry x="389" y="20" width="100" height="40" as="geometry" />
        </mxCell>
        <mxCell id="rXs9L9ZFIp_ScIqS3WeQ-11" value="时长" style="ellipse;whiteSpace=wrap;html=1;align=center;" parent="1" vertex="1">
          <mxGeometry x="599" y="90" width="100" height="40" as="geometry" />
        </mxCell>
        <mxCell id="rXs9L9ZFIp_ScIqS3WeQ-12" value="标题" style="ellipse;whiteSpace=wrap;html=1;align=center;" parent="1" vertex="1">
          <mxGeometry x="529" y="20" width="100" height="40" as="geometry" />
        </mxCell>
        <mxCell id="rXs9L9ZFIp_ScIqS3WeQ-13" value="" style="endArrow=none;html=1;rounded=0;exitX=0;exitY=0.5;exitDx=0;exitDy=0;entryX=1;entryY=0.5;entryDx=0;entryDy=0;" parent="1" source="rXs9L9ZFIp_ScIqS3WeQ-11" target="rXs9L9ZFIp_ScIqS3WeQ-5" edge="1">
          <mxGeometry relative="1" as="geometry">
            <mxPoint x="529" y="220" as="sourcePoint" />
            <mxPoint x="689" y="220" as="targetPoint" />
          </mxGeometry>
        </mxCell>
        <mxCell id="rXs9L9ZFIp_ScIqS3WeQ-14" value="" style="endArrow=none;html=1;rounded=0;exitX=0.5;exitY=1;exitDx=0;exitDy=0;entryX=0.75;entryY=0;entryDx=0;entryDy=0;" parent="1" source="rXs9L9ZFIp_ScIqS3WeQ-12" target="rXs9L9ZFIp_ScIqS3WeQ-5" edge="1">
          <mxGeometry relative="1" as="geometry">
            <mxPoint x="539" y="230" as="sourcePoint" />
            <mxPoint x="699" y="230" as="targetPoint" />
          </mxGeometry>
        </mxCell>
        <mxCell id="rXs9L9ZFIp_ScIqS3WeQ-15" value="" style="endArrow=none;html=1;rounded=0;exitX=0.5;exitY=1;exitDx=0;exitDy=0;entryX=0.25;entryY=0;entryDx=0;entryDy=0;" parent="1" source="rXs9L9ZFIp_ScIqS3WeQ-10" target="rXs9L9ZFIp_ScIqS3WeQ-5" edge="1">
          <mxGeometry relative="1" as="geometry">
            <mxPoint x="549" y="240" as="sourcePoint" />
            <mxPoint x="709" y="240" as="targetPoint" />
          </mxGeometry>
        </mxCell>
        <mxCell id="rXs9L9ZFIp_ScIqS3WeQ-16" value="题目" style="whiteSpace=wrap;html=1;align=center;" parent="1" vertex="1">
          <mxGeometry x="449" y="290" width="100" height="40" as="geometry" />
        </mxCell>
        <mxCell id="rXs9L9ZFIp_ScIqS3WeQ-17" value="包含" style="shape=rhombus;perimeter=rhombusPerimeter;whiteSpace=wrap;html=1;align=center;" parent="1" vertex="1">
          <mxGeometry x="439" y="180" width="120" height="60" as="geometry" />
        </mxCell>
        <mxCell id="rXs9L9ZFIp_ScIqS3WeQ-18" value="" style="endArrow=none;html=1;rounded=0;exitX=0.5;exitY=1;exitDx=0;exitDy=0;entryX=0.5;entryY=0;entryDx=0;entryDy=0;" parent="1" source="rXs9L9ZFIp_ScIqS3WeQ-17" target="rXs9L9ZFIp_ScIqS3WeQ-16" edge="1">
          <mxGeometry relative="1" as="geometry">
            <mxPoint x="639" y="260" as="sourcePoint" />
            <mxPoint x="799" y="260" as="targetPoint" />
          </mxGeometry>
        </mxCell>
        <mxCell id="rXs9L9ZFIp_ScIqS3WeQ-19" value="N" style="resizable=0;html=1;align=right;verticalAlign=bottom;" parent="rXs9L9ZFIp_ScIqS3WeQ-18" connectable="0" vertex="1">
          <mxGeometry x="1" relative="1" as="geometry" />
        </mxCell>
        <mxCell id="rXs9L9ZFIp_ScIqS3WeQ-20" value="" style="endArrow=none;html=1;rounded=0;exitX=0.5;exitY=0;exitDx=0;exitDy=0;entryX=0.5;entryY=1;entryDx=0;entryDy=0;" parent="1" source="rXs9L9ZFIp_ScIqS3WeQ-17" target="rXs9L9ZFIp_ScIqS3WeQ-5" edge="1">
          <mxGeometry relative="1" as="geometry">
            <mxPoint x="579" y="180" as="sourcePoint" />
            <mxPoint x="739" y="180" as="targetPoint" />
          </mxGeometry>
        </mxCell>
        <mxCell id="rXs9L9ZFIp_ScIqS3WeQ-21" value="N" style="resizable=0;html=1;align=right;verticalAlign=bottom;" parent="rXs9L9ZFIp_ScIqS3WeQ-20" connectable="0" vertex="1">
          <mxGeometry x="1" relative="1" as="geometry">
            <mxPoint y="20" as="offset" />
          </mxGeometry>
        </mxCell>
        <mxCell id="rXs9L9ZFIp_ScIqS3WeQ-22" value="类型" style="ellipse;whiteSpace=wrap;html=1;align=center;" parent="1" vertex="1">
          <mxGeometry x="309" y="290" width="100" height="40" as="geometry" />
        </mxCell>
        <mxCell id="rXs9L9ZFIp_ScIqS3WeQ-23" value="标题" style="ellipse;whiteSpace=wrap;html=1;align=center;" parent="1" vertex="1">
          <mxGeometry x="389" y="365" width="100" height="40" as="geometry" />
        </mxCell>
        <mxCell id="rXs9L9ZFIp_ScIqS3WeQ-24" value="说明" style="ellipse;whiteSpace=wrap;html=1;align=center;" parent="1" vertex="1">
          <mxGeometry x="509" y="365" width="100" height="40" as="geometry" />
        </mxCell>
        <mxCell id="rXs9L9ZFIp_ScIqS3WeQ-25" value="" style="endArrow=none;html=1;rounded=0;exitX=0;exitY=0.5;exitDx=0;exitDy=0;entryX=1;entryY=0.5;entryDx=0;entryDy=0;" parent="1" source="rXs9L9ZFIp_ScIqS3WeQ-16" target="rXs9L9ZFIp_ScIqS3WeQ-22" edge="1">
          <mxGeometry relative="1" as="geometry">
            <mxPoint x="569" y="350" as="sourcePoint" />
            <mxPoint x="729" y="350" as="targetPoint" />
          </mxGeometry>
        </mxCell>
        <mxCell id="rXs9L9ZFIp_ScIqS3WeQ-26" value="" style="endArrow=none;html=1;rounded=0;exitX=0.25;exitY=1;exitDx=0;exitDy=0;entryX=0.5;entryY=0;entryDx=0;entryDy=0;" parent="1" source="rXs9L9ZFIp_ScIqS3WeQ-16" target="rXs9L9ZFIp_ScIqS3WeQ-23" edge="1">
          <mxGeometry relative="1" as="geometry">
            <mxPoint x="459" y="320" as="sourcePoint" />
            <mxPoint x="419" y="320" as="targetPoint" />
          </mxGeometry>
        </mxCell>
        <mxCell id="rXs9L9ZFIp_ScIqS3WeQ-27" value="" style="endArrow=none;html=1;rounded=0;exitX=0.5;exitY=0;exitDx=0;exitDy=0;entryX=0.75;entryY=1;entryDx=0;entryDy=0;" parent="1" source="rXs9L9ZFIp_ScIqS3WeQ-24" target="rXs9L9ZFIp_ScIqS3WeQ-16" edge="1">
          <mxGeometry relative="1" as="geometry">
            <mxPoint x="549" y="340" as="sourcePoint" />
            <mxPoint x="509" y="340" as="targetPoint" />
          </mxGeometry>
        </mxCell>
        <mxCell id="rXs9L9ZFIp_ScIqS3WeQ-28" value="测试数据" style="ellipse;whiteSpace=wrap;html=1;align=center;" parent="1" vertex="1">
          <mxGeometry x="589" y="290" width="100" height="40" as="geometry" />
        </mxCell>
        <mxCell id="rXs9L9ZFIp_ScIqS3WeQ-29" value="" style="endArrow=none;html=1;rounded=0;exitX=0;exitY=0.5;exitDx=0;exitDy=0;entryX=1;entryY=0.5;entryDx=0;entryDy=0;" parent="1" source="rXs9L9ZFIp_ScIqS3WeQ-28" target="rXs9L9ZFIp_ScIqS3WeQ-16" edge="1">
          <mxGeometry relative="1" as="geometry">
            <mxPoint x="459" y="320" as="sourcePoint" />
            <mxPoint x="419" y="320" as="targetPoint" />
          </mxGeometry>
        </mxCell>
        <mxCell id="rXs9L9ZFIp_ScIqS3WeQ-30" value="开始时间" style="ellipse;whiteSpace=wrap;html=1;align=center;" parent="1" vertex="1">
          <mxGeometry x="569" y="160" width="100" height="40" as="geometry" />
        </mxCell>
        <mxCell id="rXs9L9ZFIp_ScIqS3WeQ-31" value="" style="endArrow=none;html=1;rounded=0;exitX=0.75;exitY=1;exitDx=0;exitDy=0;entryX=0;entryY=0;entryDx=0;entryDy=0;" parent="1" source="rXs9L9ZFIp_ScIqS3WeQ-5" target="rXs9L9ZFIp_ScIqS3WeQ-30" edge="1">
          <mxGeometry relative="1" as="geometry">
            <mxPoint x="209" y="250" as="sourcePoint" />
            <mxPoint x="369" y="250" as="targetPoint" />
          </mxGeometry>
        </mxCell>
        <mxCell id="uHWXDHK7l5Ii99A3Nnj_-1" value="user" style="shape=table;startSize=30;container=1;collapsible=1;childLayout=tableLayout;fixedRows=1;rowLines=0;fontStyle=1;align=center;resizeLast=1;" vertex="1" parent="1">
          <mxGeometry x="170" y="510" width="180" height="160" as="geometry" />
        </mxCell>
        <mxCell id="uHWXDHK7l5Ii99A3Nnj_-2" value="" style="shape=tableRow;horizontal=0;startSize=0;swimlaneHead=0;swimlaneBody=0;fillColor=none;collapsible=0;dropTarget=0;points=[[0,0.5],[1,0.5]];portConstraint=eastwest;top=0;left=0;right=0;bottom=1;" vertex="1" parent="uHWXDHK7l5Ii99A3Nnj_-1">
          <mxGeometry y="30" width="180" height="30" as="geometry" />
        </mxCell>
        <mxCell id="uHWXDHK7l5Ii99A3Nnj_-3" value="PK" style="shape=partialRectangle;connectable=0;fillColor=none;top=0;left=0;bottom=0;right=0;fontStyle=1;overflow=hidden;" vertex="1" parent="uHWXDHK7l5Ii99A3Nnj_-2">
          <mxGeometry width="30" height="30" as="geometry">
            <mxRectangle width="30" height="30" as="alternateBounds" />
          </mxGeometry>
        </mxCell>
        <mxCell id="uHWXDHK7l5Ii99A3Nnj_-4" value="" style="shape=partialRectangle;connectable=0;fillColor=none;top=0;left=0;bottom=0;right=0;align=left;spacingLeft=6;fontStyle=5;overflow=hidden;" vertex="1" parent="uHWXDHK7l5Ii99A3Nnj_-2">
          <mxGeometry x="30" width="150" height="30" as="geometry">
            <mxRectangle width="150" height="30" as="alternateBounds" />
          </mxGeometry>
        </mxCell>
        <mxCell id="uHWXDHK7l5Ii99A3Nnj_-5" value="" style="shape=tableRow;horizontal=0;startSize=0;swimlaneHead=0;swimlaneBody=0;fillColor=none;collapsible=0;dropTarget=0;points=[[0,0.5],[1,0.5]];portConstraint=eastwest;top=0;left=0;right=0;bottom=0;" vertex="1" parent="uHWXDHK7l5Ii99A3Nnj_-1">
          <mxGeometry y="60" width="180" height="30" as="geometry" />
        </mxCell>
        <mxCell id="uHWXDHK7l5Ii99A3Nnj_-6" value="" style="shape=partialRectangle;connectable=0;fillColor=none;top=0;left=0;bottom=0;right=0;editable=1;overflow=hidden;" vertex="1" parent="uHWXDHK7l5Ii99A3Nnj_-5">
          <mxGeometry width="30" height="30" as="geometry">
            <mxRectangle width="30" height="30" as="alternateBounds" />
          </mxGeometry>
        </mxCell>
        <mxCell id="uHWXDHK7l5Ii99A3Nnj_-7" value="Row 1" style="shape=partialRectangle;connectable=0;fillColor=none;top=0;left=0;bottom=0;right=0;align=left;spacingLeft=6;overflow=hidden;" vertex="1" parent="uHWXDHK7l5Ii99A3Nnj_-5">
          <mxGeometry x="30" width="150" height="30" as="geometry">
            <mxRectangle width="150" height="30" as="alternateBounds" />
          </mxGeometry>
        </mxCell>
        <mxCell id="uHWXDHK7l5Ii99A3Nnj_-8" value="" style="shape=tableRow;horizontal=0;startSize=0;swimlaneHead=0;swimlaneBody=0;fillColor=none;collapsible=0;dropTarget=0;points=[[0,0.5],[1,0.5]];portConstraint=eastwest;top=0;left=0;right=0;bottom=0;" vertex="1" parent="uHWXDHK7l5Ii99A3Nnj_-1">
          <mxGeometry y="90" width="180" height="30" as="geometry" />
        </mxCell>
        <mxCell id="uHWXDHK7l5Ii99A3Nnj_-9" value="" style="shape=partialRectangle;connectable=0;fillColor=none;top=0;left=0;bottom=0;right=0;editable=1;overflow=hidden;" vertex="1" parent="uHWXDHK7l5Ii99A3Nnj_-8">
          <mxGeometry width="30" height="30" as="geometry">
            <mxRectangle width="30" height="30" as="alternateBounds" />
          </mxGeometry>
        </mxCell>
        <mxCell id="uHWXDHK7l5Ii99A3Nnj_-10" value="Row 2" style="shape=partialRectangle;connectable=0;fillColor=none;top=0;left=0;bottom=0;right=0;align=left;spacingLeft=6;overflow=hidden;" vertex="1" parent="uHWXDHK7l5Ii99A3Nnj_-8">
          <mxGeometry x="30" width="150" height="30" as="geometry">
            <mxRectangle width="150" height="30" as="alternateBounds" />
          </mxGeometry>
        </mxCell>
        <mxCell id="uHWXDHK7l5Ii99A3Nnj_-11" value="" style="shape=tableRow;horizontal=0;startSize=0;swimlaneHead=0;swimlaneBody=0;fillColor=none;collapsible=0;dropTarget=0;points=[[0,0.5],[1,0.5]];portConstraint=eastwest;top=0;left=0;right=0;bottom=0;" vertex="1" parent="uHWXDHK7l5Ii99A3Nnj_-1">
          <mxGeometry y="120" width="180" height="30" as="geometry" />
        </mxCell>
        <mxCell id="uHWXDHK7l5Ii99A3Nnj_-12" value="" style="shape=partialRectangle;connectable=0;fillColor=none;top=0;left=0;bottom=0;right=0;editable=1;overflow=hidden;" vertex="1" parent="uHWXDHK7l5Ii99A3Nnj_-11">
          <mxGeometry width="30" height="30" as="geometry">
            <mxRectangle width="30" height="30" as="alternateBounds" />
          </mxGeometry>
        </mxCell>
        <mxCell id="uHWXDHK7l5Ii99A3Nnj_-13" value="Row 3" style="shape=partialRectangle;connectable=0;fillColor=none;top=0;left=0;bottom=0;right=0;align=left;spacingLeft=6;overflow=hidden;" vertex="1" parent="uHWXDHK7l5Ii99A3Nnj_-11">
          <mxGeometry x="30" width="150" height="30" as="geometry">
            <mxRectangle width="150" height="30" as="alternateBounds" />
          </mxGeometry>
        </mxCell>
      </root>
    </mxGraphModel>
  </diagram>
</mxfile>
